inDegrees=no
num_controls=7
num_derivatives=13
num_iterations=158
num_multipliers=7
num_parameters=0
num_slacks=7
num_states=26
objective=5.887951
objective_accelerations=0.873825
objective_balance=0.063471
objective_effort=0.335751
objective_height=4.502147
objective_ligament=0.112756
solver_duration=1761.617432
status=Solve_Succeeded
success=true
DataType=double
version=3
OpenSimVersion=4.4-2022-07-23-0e9fedc
endheader
time	/jointset/ground_pelvis/pelvis_tilt/value	/jointset/ground_pelvis/pelvis_tx/value	/jointset/ground_pelvis/pelvis_ty/value	/jointset/hip_l/hip_flexion_l/value	/jointset/hip_l/hip_adduction_l/value	/jointset/hip_l/hip_rotation_l/value	/jointset/back/lumbar_extension/value	/jointset/patellofemoral_l/patellar_flexion_l/value	/jointset/knee_l/knee_flexion_l/value	/jointset/knee_l/knee_adduction_l/value	/jointset/knee_l/knee_rotation_l/value	/jointset/ankle_l/ankle_angle_l/value	/jointset/subtalar_l/subtalar_angle_l/value	/jointset/ground_pelvis/pelvis_tilt/speed	/jointset/ground_pelvis/pelvis_tx/speed	/jointset/ground_pelvis/pelvis_ty/speed	/jointset/hip_l/hip_flexion_l/speed	/jointset/hip_l/hip_adduction_l/speed	/jointset/hip_l/hip_rotation_l/speed	/jointset/back/lumbar_extension/speed	/jointset/patellofemoral_l/patellar_flexion_l/speed	/jointset/knee_l/knee_flexion_l/speed	/jointset/knee_l/knee_adduction_l/speed	/jointset/knee_l/knee_rotation_l/speed	/jointset/ankle_l/ankle_angle_l/speed	/jointset/subtalar_l/subtalar_angle_l/speed	/forceset/tau_hip_flexion_l	/forceset/tau_hip_adduction_l	/forceset/tau_hip_rotation_l	/forceset/tau_knee_flexion_l	/forceset/tau_ankle_angle_l	/forceset/tau_subtalar_angle_l	/forceset/tau_lumbar_extension	lambda_cid13_p0	lambda_cid13_p1	lambda_cid13_p2	lambda_cid13_p3	lambda_cid13_p4	lambda_cid13_p5	lambda_cid14_p0	/jointset/ground_pelvis/pelvis_tilt/accel	/jointset/ground_pelvis/pelvis_tx/accel	/jointset/ground_pelvis/pelvis_ty/accel	/jointset/hip_l/hip_flexion_l/accel	/jointset/hip_l/hip_adduction_l/accel	/jointset/hip_l/hip_rotation_l/accel	/jointset/back/lumbar_extension/accel	/jointset/patellofemoral_l/patellar_flexion_l/accel	/jointset/knee_l/knee_flexion_l/accel	/jointset/knee_l/knee_adduction_l/accel	/jointset/knee_l/knee_rotation_l/accel	/jointset/ankle_l/ankle_angle_l/accel	/jointset/subtalar_l/subtalar_angle_l/accel	gamma_cid13_p0	gamma_cid13_p1	gamma_cid13_p2	gamma_cid13_p3	gamma_cid13_p4	gamma_cid13_p5	gamma_cid14_p0
0	-0.04057312267925334	0.06937725113189673	0.8959931501402867	0.1955292361009247	-0.3215620590990212	-0.4922367809998284	-0.137903700187828	0.07015350928391031	0.07015350928391206	-0.1745329251994329	-0.1262615932912527	-0.06701017130107029	0.004397927305000298	0	0	0	0	0	0	0	0	0	0	0	0	0	0.1175458700629879	-0.1000857742947224	-0.03198979610331095	-0.2353840605969677	0.1829073595925238	-0.02011204100524646	-0.06315051356657275	22.6847282184291	1.000479790263942	3.801971041463433	9.000213394578847	-512.6232209000751	-79.75253626490039	-40.14156709948379	-5.749658952122472	-2.39624862626389	-1.129517522995724	14.91895078857395	-2.189092539940684	3.603192859239029	-3.059577281779483	10.67989326685046	10.67989326685064	0.8404601573108383	-0.8698279802229285	1.746324154991026	-1.454964853398607	-1.854989062058219e-08	1.525310161450307e-07	1.207153558307383e-07	7.94088605367074e-09	1.264144544372577e-08	-1.075972378616321e-08	-2.627764811243785e-09
0.01	-0.04084877664664126	0.06925925092889564	0.8959382661459876	0.1962518101561309	-0.3216698600026223	-0.4920559253238618	-0.1380634330033302	0.07067230671076978	0.07067230671072108	-0.1744947883389447	-0.1262985729022207	-0.06692711202005126	0.004324633579154477	-0.05488766856758846	-0.02346641377247868	-0.0109414317009213	0.1438472961063061	-0.02144954436176437	0.03601760869011729	-0.03165374203427873	0.1032931803717029	0.1032931803717029	0.007607202767355223	-0.007346410106021673	0.01657182592889727	-0.01455982580789149	0.11338578318166	-0.100930448296906	-0.03134073541762605	-0.2314225622126038	0.1774934207647623	-0.01609735803459399	-0.05943613129567396	21.08394757794773	-0.4092348329537719	3.965519557155544	8.840247974007168	-513.50578320688	-82.45027278176366	-40.15206738936372	-5.321865163044682	-2.301792140191186	-1.071148391525455	14.01747875833624	-2.106323637111285	3.578003582629598	-3.174349504596842	10.08408519894973	10.08408519894958	0.7178340199411977	-0.659610432869301	1.606610969819502	-1.441691705820583	-6.192806819683465e-08	1.810224177205427e-07	2.080137902640759e-07	4.62418584056835e-08	-2.510366974732848e-07	-6.300480351723155e-08	-9.462599428195098e-09
0.02	-0.04166601617049	0.0689105957106797	0.8957750293551024	0.1983928291197387	-0.3219888440004071	-0.4915195018192483	-0.1385309186072425	0.07221004689659563	0.07221004689659534	-0.1743811817448301	-0.1264075291957925	-0.0666795346481469	0.004108701542962578	-0.1083171112939023	-0.04613100304296933	-0.02167055931719531	0.2836889816797085	-0.04223661883621003	0.07111356572948802	-0.06155055768236508	0.2037885518081886	0.2037885518081865	0.01509375287444418	-0.01439533649513639	0.03290361817701372	-0.02852766206922931	0.1092256963002967	-0.101775122299083	-0.03069167473122694	-0.2274610638283631	0.1720794819369901	-0.01208267506394826	-0.05572174902480111	19.55121000328723	-1.831482597692809	4.131774823532617	8.550288877415282	-513.3701451703492	-84.97393913868308	-40.18292857333127	-5.458013783867653	-2.235883725866207	-1.087056706066269	14.11782868199323	-2.056598562476953	3.418862529089719	-2.708192004541097	10.12033147980701	10.12033147980677	0.8163296252575587	-0.8103312368415196	1.698317418834943	-1.336566944087842	-1.053062457730871e-07	2.095138192960546e-07	2.953122246974135e-07	8.454283075769626e-08	-5.147148403902954e-07	-1.152498832482999e-07	-1.629743404514641e-08
0.03	-0.04301083251576084	0.06833911327464923	0.8955051837791403	0.2019136339277199	-0.3225122307054625	-0.4906369489107537	-0.1392880218752399	0.07473940083386765	0.07473940083386209	-0.1741930357537731	-0.1265859205599483	-0.06626986077969252	0.003756197095094942	-0.160381155835688	-0.06804741786099691	-0.03229026670162483	0.4198114241778158	-0.06231767895905663	0.1052537529510156	-0.08960267150710871	0.3016092924671268	0.3016092924671215	0.02250637483869421	-0.02121968235827245	0.04896408744790184	-0.04187702326677215	0.1039385997345405	-0.09703933160496517	-0.02983776046257335	-0.2224049763630649	0.167257101823084	-0.01229389740616452	-0.05133094332601487	18.05930504402186	-1.576334578002899	4.202816584146416	8.817950926931145	-512.9791979853675	-83.57772962198541	-40.23284836763912	-5.04086248345785	-2.151793350963174	-1.048288386929844	13.26034739909133	-1.965453884757758	3.390068794808838	-2.813607410165137	9.542007169077873	9.542007169077534	0.6994350014426266	-0.6089625286948813	1.549852228045583	-1.319756510124106	-1.344682988720993e-07	2.275072957834678e-07	3.542411093554915e-07	1.119608300727999e-07	-6.99832990502586e-07	-1.497607993194105e-07	-2.040885299070644e-08
